<?xml version="1.0" encoding="utf-8"?>
<?xml-stylesheet type="text/xsl" href="rss1.xsl"?>
<rss version="2.0" xmlns:atom="http://www.w3.org/2005/Atom" xmlns:content="http://purl.org/rss/1.0/modules/content/" xmlns:dc="http://purl.org/dc/elements/1.1/" xmlns:media="http://search.yahoo.com/mrss/">
<channel>
 <title>Getty</title>
 <link>http://www.gettyimg.com/</link>
 <atom:link href="http://www.gettyimg.com/" rel="self" type="application/rss+xml" />

 
                <item>
                <title><![CDATA[【SD】DVD - Maria Vidal - Body Rock (MM VOB)]]></title>
                <link><![CDATA[https://sharemania.us/threads/maria-vidal-body-rock-mm-vob.223121/]]></link>
                <description><![CDATA[<article>
<blockquote class="messageText SelectQuoteContainer ugc baseHtml">
<div style="text-align: center"><i><b><span style="color: #330066"><img src="https://i.postimg.cc/RFbBRxyf/03.jpg" class="bbCodeImage LbImage" alt="[​IMG]" data-url="https://i.postimg.cc/RFbBRxyf/03.jpg" style=""><br>
</span><br>
<span style="font-size: 26px"><span style="color: #330066"><span style="text-decoration: underline">Maria Vidal - Body Rock</span></span></span></b></i><br>
<br>
​</div>
<div class="messageTextEndMarker">&nbsp;</div>
</blockquote>
</article>]]></description>
                <author><![CDATA[Synthwave_Evans]]></author>
                </item>

                
                <item>
                <title><![CDATA[【Cinema Center】MOVIE - Extraction 2 2023 1080p WEBRip x264 AAC]]></title>
                <link><![CDATA[https://sharemania.us/threads/extraction-2-2023-1080p-webrip-x264-aac.223123/]]></link>
                <description><![CDATA[<article>
<blockquote class="messageText SelectQuoteContainer ugc baseHtml">
<img src="https://img.kiwi/images/2023/06/22/f79410520c82cfb9c17e67ea5876d886.webp" class="bbCodeImage LbImage" alt="[​IMG]" data-url="https://img.kiwi/images/2023/06/22/f79410520c82cfb9c17e67ea5876d886.webp" style=""><br>
<img src="https://img.kiwi/images/2023/06/22/e19b3dcde449bbcf9e974b2790fa78a8.png" class="bbCodeImage LbImage" alt="[​IMG]" data-url="https://img.kiwi/images/2023/06/22/e19b3dcde449bbcf9e974b2790fa78a8.png" style=""><br>
<br>
<div class="bbCodeBlock bbCodeCode">
<div class="type">Code:</div>
<pre>Format            : Matroska at 2 631 kb/s
Length            : 2.28 GiB for 2 h 3 min 57 s 668 ms

Video #0          : AVC at 2 250 kb/s
Aspect            : 1920 x 804 (2.388) at 24.000 fps

Audio #0          : AAC at 384 kb/s
Infos             : 6 channels, 48.0 kHz

Text #0           : UTF-8
Language          : en

Text #1           : UTF-8
Language          : en
</pre>
</div>
<div class="bbCodeBlock bbCodeCode">
<div class="type">Code:</div>
<pre>Password: share
</pre>
</div>
<div class="bbCodeBlock bbCodeVfcHH HiddenContent">
<div class="attribution type">Hidden Content:</div>
<blockquote>You must reply before you can see the hidden data contained here.</blockquote>
</div>
<div class="messageTextEndMarker">&nbsp;</div>
</blockquote>
</article>]]></description>
                <author><![CDATA[mrsteze]]></author>
                </item>

                
                <item>
                <title><![CDATA[【VEVO】WEB-RiP - Belanova - Rosa Pastel [VevoRip Clean AVC 1080p] - 2006]]></title>
                <link><![CDATA[https://sharemania.us/threads/belanova-rosa-pastel-vevorip-clean-avc-1080p-2006.223124/]]></link>
                <description><![CDATA[<article>
<blockquote class="messageText SelectQuoteContainer ugc baseHtml">
<div style="text-align: center"><img src="https://i.imgur.com/iegZawY.png" class="bbCodeImage LbImage" alt="[​IMG]" data-url="https://i.imgur.com/iegZawY.png" style=""><br>
<br>
<img src="https://i.imgur.com/MTVs8BC.png" class="bbCodeImage LbImage" alt="[​IMG]" data-url="https://i.imgur.com/MTVs8BC.png" style="">​</div><br>
<div class="ToggleTriggerAnchor bbCodeSpoilerContainer">
<button type="button" class="button bbCodeSpoilerButton ToggleTrigger Tooltip JsOnly" data-target="> .SpoilerTarget"><span>Spoiler: <span class="SpoilerTitle">MediaInfo</span></span></button>
<div class="SpoilerTarget bbCodeSpoilerText">
<div class="bbCodeBlock bbCodeCode">
<div class="type">Code:</div>
<pre>General
Complete name                  : Belanova - Rosa Pastel [VevoRip Clean AVC 1080p] - 2006.mp4
Format                         : MPEG-4
Format profile                 : Base Media
Codec ID                       : isom (isom/iso2/avc1/mp41)
File size                      : 102 MiB
Duration                       : 3 min 8 s
Overall bit rate               : 4 556 kb/s
Frame rate                     : 25.000 FPS
Writing application            : Lavf59.16.100

Video
ID                             : 1
Format                         : AVC
Format/Info                    : Advanced Video Codec
Format profile                 : Main@L4
Format settings                : CABAC / 4 Ref Frames
Format settings, CABAC         : Yes
Format settings, Reference fra : 4 frames
Codec ID                       : avc1
Codec ID/Info                  : Advanced Video Coding
Duration                       : 3 min 8 s
Bit rate                       : 4 424 kb/s
Width                          : 1 920 pixels
Height                         : 1 080 pixels
Display aspect ratio           : 16:9
Frame rate mode                : Constant
Frame rate                     : 25.000 FPS
Color space                    : YUV
Chroma subsampling             : 4:2:0
Bit depth                      : 8 bits
Scan type                      : Progressive
Bits/(Pixel*Frame)             : 0.085
Stream size                    : 99.4 MiB (97%)
Writing library                : x264 core 144 r2 40bb568
Encoding settings              : cabac=1 / ref=3 / deblock=1:0:0 / analyse=0x1:0x131 / me=umh / subme=10 / psy=1 / psy_rd=1.00:0.00 / mixed_ref=1 / me_range=24 / chroma_me=1 / trellis=2 / 8x8dct=0 / cqm=0 / deadzone=21,11 / fast_pskip=1 / chroma_qp_offset=-2 / threads=12 / lookahead_threads=1 / sliced_threads=0 / nr=0 / decimate=1 / interlaced=0 / bluray_compat=0 / constrained_intra=0 / bframes=3 / b_pyramid=2 / b_adapt=1 / b_bias=0 / direct=1 / weightb=1 / open_gop=0 / weightp=2 / keyint=125 / keyint_min=10 / scenecut=40 / intra_refresh=0 / rc_lookahead=60 / rc=2pass / mbtree=1 / bitrate=4420 / ratetol=1.0 / qcomp=0.60 / qpmin=0 / qpmax=69 / qpstep=4 / cplxblur=20.0 / qblur=0.5 / vbv_maxrate=5200 / vbv_bufsize=5200 / nal_hrd=none / filler=0 / ip_ratio=1.40 / aq=1:1.00
Codec configuration box        : avcC

Audio
ID                             : 2
Format                         : AAC LC
Format/Info                    : Advanced Audio Codec Low Complexity
Codec ID                       : mp4a-40-2
Duration                       : 3 min 8 s
Bit rate mode                  : Constant
Bit rate                       : 128 kb/s
Channel(s)                     : 2 channels
Channel layout                 : L R
Sampling rate                  : 44.1 kHz
Frame rate                     : 43.066 FPS (1024 SPF)
Compression mode               : Lossy
Stream size                    : 2.88 MiB (3%)
Default                        : Yes
Alternate group                : 1
</pre>
</div></div>
</div><br>
<div style="text-align: center"><b>DOWNLOAD LINK</b><br>
<img src="https://i.imgur.com/yRbU0vs.png" class="bbCodeImage LbImage" alt="[​IMG]" data-url="https://i.imgur.com/yRbU0vs.png" style=""><br>
<div class="bbCodeBlock bbCodeVfcHH HiddenContent">
<div class="attribution type">Hidden Content:</div>
<blockquote>You must either reply or click 'Like' to see the hidden information contained here.</blockquote>
</div></div>
<div class="messageTextEndMarker">&nbsp;</div>
</blockquote>
</article>]]></description>
                <author><![CDATA[ElFunadisimo]]></author>
                </item>

                
                <item>
                <title><![CDATA[【VEVO】WEB-RiP - Molotov - Frijolero [VevoRip Clean AVC 1080p] - 2003]]></title>
                <link><![CDATA[https://sharemania.us/threads/molotov-frijolero-vevorip-clean-avc-1080p-2003.223122/]]></link>
                <description><![CDATA[<article>
<blockquote class="messageText SelectQuoteContainer ugc baseHtml">
<div style="text-align: center"><b>Esta va pa' Disney <img src="styles/default/xenforo/clear.png" class="mceSmilieSprite mceSmilie61" alt=":kissingheart:" title="Kissing Heart    :kissingheart:"> #ShutUpGringo2023</b><br>
<br>
<img src="https://i.imgur.com/8VWFOsW.png" class="bbCodeImage LbImage" alt="[​IMG]" data-url="https://i.imgur.com/8VWFOsW.png" style=""><br>
<br>
<img src="https://i.imgur.com/3LgLBgQ.png" class="bbCodeImage LbImage" alt="[​IMG]" data-url="https://i.imgur.com/3LgLBgQ.png" style="">​</div><br>
<div class="ToggleTriggerAnchor bbCodeSpoilerContainer">
<button type="button" class="button bbCodeSpoilerButton ToggleTrigger Tooltip JsOnly" data-target="> .SpoilerTarget"><span>Spoiler: <span class="SpoilerTitle">MediaInfo</span></span></button>
<div class="SpoilerTarget bbCodeSpoilerText">
<div class="bbCodeBlock bbCodeCode">
<div class="type">Code:</div>
<pre>General
Complete name                  : Molotov - Frijolero [VevoRip Clean AVC 1080p] - 2003.mp4
Format                         : MPEG-4
Format profile                 : Base Media
Codec ID                       : isom (isom/iso2/avc1/mp41)
File size                      : 117 MiB
Duration                       : 3 min 36 s
Overall bit rate               : 4 531 kb/s
Frame rate                     : 25.000 FPS
Writing application            : Lavf59.16.100

Video
ID                             : 1
Format                         : AVC
Format/Info                    : Advanced Video Codec
Format profile                 : Main@L4
Format settings                : CABAC / 4 Ref Frames
Format settings, CABAC         : Yes
Format settings, Reference fra : 4 frames
Codec ID                       : avc1
Codec ID/Info                  : Advanced Video Coding
Duration                       : 3 min 36 s
Bit rate                       : 4 397 kb/s
Width                          : 1 920 pixels
Height                         : 1 080 pixels
Display aspect ratio           : 16:9
Frame rate mode                : Constant
Frame rate                     : 25.000 FPS
Color space                    : YUV
Chroma subsampling             : 4:2:0
Bit depth                      : 8 bits
Scan type                      : Progressive
Bits/(Pixel*Frame)             : 0.085
Stream size                    : 113 MiB (97%)
Writing library                : x264 core 144 r2 40bb568
Encoding settings              : cabac=1 / ref=3 / deblock=1:0:0 / analyse=0x1:0x131 / me=umh / subme=10 / psy=1 / psy_rd=1.00:0.00 / mixed_ref=1 / me_range=24 / chroma_me=1 / trellis=2 / 8x8dct=0 / cqm=0 / deadzone=21,11 / fast_pskip=1 / chroma_qp_offset=-2 / threads=12 / lookahead_threads=1 / sliced_threads=0 / nr=0 / decimate=1 / interlaced=0 / bluray_compat=0 / constrained_intra=0 / bframes=3 / b_pyramid=2 / b_adapt=1 / b_bias=0 / direct=1 / weightb=1 / open_gop=0 / weightp=2 / keyint=125 / keyint_min=10 / scenecut=40 / intra_refresh=0 / rc_lookahead=60 / rc=2pass / mbtree=1 / bitrate=4420 / ratetol=1.0 / qcomp=0.60 / qpmin=0 / qpmax=69 / qpstep=4 / cplxblur=20.0 / qblur=0.5 / vbv_maxrate=5200 / vbv_bufsize=5200 / nal_hrd=none / filler=0 / ip_ratio=1.40 / aq=1:1.00
Codec configuration box        : avcC

Audio
ID                             : 2
Format                         : AAC LC
Format/Info                    : Advanced Audio Codec Low Complexity
Codec ID                       : mp4a-40-2
Duration                       : 3 min 36 s
Bit rate mode                  : Constant
Bit rate                       : 128 kb/s
Channel(s)                     : 2 channels
Channel layout                 : L R
Sampling rate                  : 44.1 kHz
Frame rate                     : 43.066 FPS (1024 SPF)
Compression mode               : Lossy
Stream size                    : 3.30 MiB (3%)
Default                        : Yes
Alternate group                : 1
</pre>
</div></div>
</div><br>
<div style="text-align: center"><b>DOWNLOAD LINK</b><br>
<img src="https://i.imgur.com/yRbU0vs.png" class="bbCodeImage LbImage" alt="[​IMG]" data-url="https://i.imgur.com/yRbU0vs.png" style=""><br>
<div class="bbCodeBlock bbCodeVfcHH HiddenContent">
<div class="attribution type">Hidden Content:</div>
<blockquote>You must either reply or click 'Like' to see the hidden information contained here.</blockquote>
</div></div>
<div class="messageTextEndMarker">&nbsp;</div>
</blockquote>
</article>]]></description>
                <author><![CDATA[ElFunadisimo]]></author>
                </item>

                </channel></rss>